<?xml version="1.0" encoding="UTF-8"?>
<svg id="Calque_1" xmlns="http://www.w3.org/2000/svg" viewBox="0 0 402.48 338.32">
  <path
    fill="#ee4540"
    stroke-width="0"
    d="m261.12,338.25c-44.16,0-88.32.21-132.48-.09-21-.14-41.34-4.13-60.21-13.92-29.59-15.34-47.86-40.19-58.54-71.01C.62,226.42-1.3,198.67.74,170.51c1.93-26.57,8.31-51.87,21.65-75.05C44.92,56.3,78.52,30.1,120.16,13.92,151.86,1.61,184.89-1.47,218.72.59c38.7,2.36,74.55,13.07,107.07,34.25,41.26,26.86,66.67,64.28,74.37,113.21,2,12.68,2.34,25.5,2.31,38.34-.09,48.16-.1,96.32-.14,144.48,0,7.24-.14,7.38-7.24,7.38-44.66,0-89.32,0-133.98,0Zm-59.84-78.87c0,1.33.2,2.7-.03,3.99-.95,5.33,1.42,8.27,6.29,10.16,7.28,2.82,14.29,6.34,21.6,9.07,12.58,4.71,25.71,6.89,39.11,6.71,17.75-.24,34.5-5.02,50.4-12.65,16.76-8.04,13.46-2.71,13.79-21.28.13-7.64,0-7.65-6.83-4.59-37.85,16.97-75.96,17.3-114.26,1.63-10.13-4.14-10.07-4.28-10.07,6.97Z"
  />
  <ellipse cx="234.61" cy="217.58" rx="152" ry="109" fill="#ee4540" stroke-width="0" />
  <g>
    <path
      fill="#f9f9f9"
      fill-rule="evenodd"
      stroke-width="0"
      d="m325.76,158.92c3.2-1.96,4.88-5.67,4.27-9.37l-12.14-72.54c-.41-2.44-1.78-4.61-3.8-6.02-2.02-1.42-4.53-1.96-6.96-1.51l-68.86,12.79c-3.61.67-6.47,3.42-7.29,6.99-.82,3.57.56,7.3,3.51,9.47l30.42,22.44-52.41,74.84-47.85-33.55c-2.5-1.75-5.59-2.44-8.6-1.91-3.01.53-5.68,2.23-7.43,4.73l-74.18,105.93c-3.65,5.21-2.38,12.38,2.83,16.03,5.21,3.65,12.38,2.38,16.03-2.82l67.57-96.5,47.85,33.55c2.5,1.75,5.59,2.44,8.6,1.91,3.01-.53,5.68-2.23,7.43-4.73l58.69-83.81,32.06,23.64c3.02,2.23,7.09,2.4,10.28.44Z"
    />
  </g>
</svg>
