<?xml version="1.0" encoding="UTF-8"?><svg id="Calque_1" xmlns="http://www.w3.org/2000/svg" viewBox="0 0 499.86 499.86"><path d="m249.75,499.86C111.81,499.77-.03,387.83,0,249.88.03,111.73,112.17-.2,250.36,0c137.91.2,249.63,112.25,249.5,250.24-.13,137.91-112.14,249.7-250.11,249.62Zm.45-289.92c-64.46,0-128.92,0-193.37,0-6.72,0-6.83.11-6.84,6.61,0,22.32,0,44.64,0,66.96,0,6.22.19,6.4,6.54,6.4,128.92,0,257.83,0,386.75,0,6.49,0,6.59-.12,6.59-6.86,0-21.99,0-43.97,0-65.96q0-7.15-7.3-7.16c-64.12,0-128.25,0-192.37,0Z" stroke-width="0"/></svg>