<?xml version="1.0" encoding="UTF-8"?><svg id="Calque_1" xmlns="http://www.w3.org/2000/svg" viewBox="0 0 473.02 489"><path d="m164.1,489c-.78-5.11-.53-10.26-.23-15.37.42-7.46,4.54-12.52,11.15-15.65,1.72-.82,3.22-1.37,3.77-3.72,3.02-12.7,11.58-20.76,23.37-24.96,22.79-8.12,45.9-8.12,68.68.01,11.78,4.21,20.32,12.26,23.37,24.98.43,1.78,1.28,2.65,2.95,3.35,8.36,3.55,12.42,9.95,12.08,19.06-.16,4.1.46,8.22-.38,12.3h-12.36c-.12-4.11-.24-8.22-.35-12.32-.15-5.42-1.83-7.2-7.15-7.21-35-.02-70.01-.02-105.01,0-5.29,0-7,1.82-7.18,7.2-.12,4.11-.23,8.22-.35,12.32h-12.36.01Z" stroke-width="0"/><path d="m202.9,203.03c0-9.63-.12-18.68.06-27.71.07-3.31-.49-4.83-4.36-5.22-7.58-.78-12.43-6.22-12.48-13.56-.12-19.84-.07-39.68.06-59.52.04-4.87,1.16-9.62,3.04-14.12,5.53-13.3,16.77-16.75,28.04-18.09,1.98-.24,2.9,1.23,3.96,2.37,4.4,4.73,8.83,9.46,13.04,14.35,1.72,1.99,2.75,1.92,4.44-.02,4.13-4.78,8.53-9.33,12.7-14.07,1.81-2.05,3.61-2.82,6.5-2.38,18.47,2.85,28.35,13.24,28.8,31.99.49,19.83.27,39.68.15,59.52-.05,7.74-5.1,12.87-13.35,13.67-3,.29-3.64,1.36-3.62,4.05.11,9.35.05,18.7.05,28.62-22.51-15.71-44.56-15.75-67.04.15h0Z" stroke-width="0"/><path d="m72.75,435.77H22.02c-7.58,0-8.8,1.2-8.81,8.58,0,10.44-.09,20.88.05,31.32.04,2.7-.79,3.48-3.5,3.51C.01,479.26.01,479.37.01,469.57c0-9.27,0-18.53.02-27.8.02-8.2,4-13.9,11.26-17.45,1.54-.76,3.26-1.04,3.75-3.24,3.3-14.69,13.61-22.78,27.14-26.8,22.15-6.56,44.44-6.6,66.16,1.88,11.36,4.44,19.61,12.32,22.16,24.89.35,1.77,1.44,2.33,2.87,2.9,8.4,3.34,12.14,9.73,12.13,18.58,0,11.03-.07,22.07.06,33.09.04,2.71-.82,3.48-3.51,3.53-9.6.15-9.6.24-9.6-9.29,0-8.83.04-17.65,0-26.47-.02-5.83-1.78-7.59-7.68-7.6-17.35-.04-34.71-.01-52.05-.01v-.02h.01Z" stroke-width="0"/><path d="m399.86,435.77c-17.05,0-34.12-.01-51.17,0-6.65,0-8.22,1.64-8.22,8.41,0,10.29-.07,20.59.07,30.88.04,2.87-.5,4.17-3.83,4.13-9.27-.11-9.27.05-9.27-9.23s.04-18.24,0-27.35c-.04-8.86,3.68-15.26,12.04-18.64,1.42-.57,2.58-1.06,2.95-2.84,2.84-13.9,12.4-21.88,24.94-26.12,21.2-7.16,42.8-7.2,64.14-.46,13.19,4.16,23.13,12.15,26.36,26.47.44,1.94,1.8,2.44,3.3,3.12,7.92,3.57,11.85,9.67,11.78,18.42-.09,10.88-.12,21.76.06,32.64.05,3.09-.87,4-3.97,3.97-9.25-.07-9.25.06-9.25-9.17s.02-17.95-.02-26.91c-.02-5.61-1.71-7.31-7.42-7.32-17.49-.04-35-.01-52.49-.01h0Z" stroke-width="0"/><path d="m72.82,294.73c-17.2,0-34.41-.01-51.61,0-6.5,0-8.01,1.56-8.02,8.08-.01,10.59-.07,21.17.05,31.76.04,2.64-.67,3.51-3.46,3.53C0,338.19,0,338.31,0,328.56,0,319.59.04,310.63,0,301.65c-.05-8.89,3.81-15.18,12.08-18.66,1.37-.57,2.59-1.09,3-2.85,3.7-16.52,15.88-24.28,30.79-28.07,19.25-4.89,38.74-4.95,57.82,1.26,13.39,4.36,23.86,12.08,26.88,26.96.37,1.83,1.72,2.21,3.07,2.75,8.22,3.35,11.85,9.68,11.88,18.31.04,10.88-.07,21.76.07,32.64.04,2.91-.57,4.13-3.83,4.12-9.27-.04-9.27.12-9.27-9.19v-26.03c0-6.43-1.69-8.15-8.04-8.17-17.2-.02-34.41,0-51.61,0h-.02,0Z" stroke-width="0"/><path d="m400.21,294.73c-17.2,0-34.4-.01-51.6,0-6.43,0-8.12,1.71-8.13,8.08-.02,10.59-.1,21.17.05,31.76.04,2.73-.82,3.48-3.48,3.53-9.6.17-9.6.27-9.6-9.3s-.05-18.52.04-27.79c.07-8.46,3.78-14.63,11.77-17.92,1.5-.61,2.82-1.11,3.23-3.12,2.9-14.11,12.78-21.98,25.45-26.19,21.22-7.04,42.84-7.03,64.11-.13,12.75,4.13,22.58,11.99,25.73,25.98.46,2.07,1.76,2.81,3.45,3.55,7.68,3.3,11.64,9.19,11.7,17.53.09,11.32-.07,22.64.09,33.96.04,2.82-.98,3.39-3.57,3.42-9.65.12-9.65.22-9.65-9.18v-25.15c0-7.78-1.22-9.02-8.86-9.03h-50.72Z" stroke-width="0"/><path d="m236.65,331.63h-52.04c-6.08,0-7.69,1.43-7.76,7.46-.13,10.59-.13,21.17,0,31.75.05,3-.71,4.06-3.89,4.02-9.25-.09-9.25.06-9.25-9.13s.06-18.23,0-27.35c-.06-9.11,4.03-15.43,12.47-18.81,1.2-.48,1.99-.86,2.31-2.22,4.1-17.6,17.25-25.29,33.18-29.02,18.3-4.29,36.77-4.17,54.87,1.49,13.8,4.32,24.38,12.29,27.87,27.26.35,1.53,1.17,2,2.52,2.56,7.98,3.3,12.29,9.18,12.26,18.02-.02,11.17-.06,22.35.12,33.52.05,2.92-.81,3.73-3.74,3.7-9.4-.09-9.39.05-9.39-9.45,0-8.83.05-17.64-.02-26.47-.05-5.66-1.75-7.3-7.47-7.3-17.35-.02-34.69,0-52.04,0v-.02h.01Z" stroke-width="0"/><path d="m236.32,346.8c18.86-.04,34.07,14.88,34.25,33.61.18,18.81-15.26,34.32-34.14,34.28-18.55-.02-33.85-15.1-34.02-33.51-.17-19,14.96-34.34,33.91-34.38Z" stroke-width="0"/><path d="m106.75,206.06c0,18.74-15.11,33.92-33.83,33.95-18.73.04-33.96-15.07-34.1-33.81-.13-18.91,15.24-34.3,34.17-34.18,18.85.12,33.75,15.15,33.77,34.05h-.01Z" stroke-width="0"/><path d="m366.21,205.58c.07-18.66,15.49-33.75,34.25-33.56,18.79.2,33.8,15.45,33.67,34.23-.13,18.72-15.39,33.81-34.13,33.77-18.89-.04-33.85-15.31-33.79-34.44h0Z" stroke-width="0"/><path d="m106.74,346.85c0,19.01-15.21,34.32-34.07,34.28-18.57-.04-33.84-15.43-33.86-34.16-.02-18.58,15.54-34.23,33.95-34.16,18.64.07,33.97,15.43,33.97,34.03h.01Z" stroke-width="0"/><path d="m366.21,347.1c-.04-18.88,15.39-34.35,34.17-34.28,18.28.07,33.72,15.57,33.77,33.91.06,18.95-15.27,34.43-34.06,34.4-18.66-.04-33.84-15.28-33.88-34.02h0Z" stroke-width="0"/><path d="m236.92,208.78c18.85.33,33.88,15.66,33.64,34.33-.23,18.7-15.67,33.88-34.29,33.69-19.11-.18-34.25-15.87-33.83-35.01.42-18.39,16.01-33.33,34.49-33.01h-.01Z" stroke-width="0"/><path d="m208.18,28.13C208.24,12.43,220.81-.04,236.54,0c15.93.04,28.39,12.68,28.25,28.68-.15,15.59-12.97,28.2-28.57,28.08-15.6-.12-28.08-12.87-28.03-28.62h-.01Z" stroke-width="0"/></svg>