<?xml version="1.0" encoding="UTF-8"?><svg id="Calque_1" xmlns="http://www.w3.org/2000/svg" viewBox="0 0 639.98 101.78"><path d="m240.48,100.64c.28-.4.52-.83.85-1.18,5.56-5.96,9.67-12.7,11.26-20.8.26-1.34.43-2.7.67-4.28-.4.23-.58.28-.69.41-3.85,4.39-8.87,6.16-14.54,6.43-3.95.19-7.84-.17-11.6-1.45-7.03-2.39-10.85-7.53-12.2-14.62-.47-2.44-.69-4.96-.7-7.44-.07-11.42-.03-22.85-.03-34.28,0-1.71.1-1.8,1.84-1.8,4.42,0,8.84.02,13.27,0,2.06-.01,2.05-.04,2.04,2.11-.01,9.92-.05,19.85.03,29.77.01,1.9.36,3.82.77,5.69.96,4.34,3.68,6.78,8.16,7.17,4.33.38,8.32-.26,11.25-3.87,1.77-2.18,2.4-4.79,2.55-7.52.13-2.3.14-4.61.15-6.92.02-6.77.01-13.54,0-20.31,0-1.54-.04-3.08-.09-4.61-.04-1.05.37-1.52,1.49-1.52,4.77.04,9.54.03,14.3,0,1.02,0,1.42.33,1.42,1.4-.03,15.12,0,30.23-.03,45.35,0,5.93-.27,11.83-2.2,17.53-1.85,5.45-4.57,10.4-8.34,14.75h-19.62Z" fill="#f9f9f9" stroke-width="0"/><path d="m639.98,65.84c-.49,1.37-.84,2.82-1.51,4.1-2.67,5.11-7.12,7.72-12.69,8.55-3.71.55-7.34.14-10.79-1.42-3.78-1.71-6.03-4.68-6.16-8.83-.21-6.71-.15-13.43-.15-20.14,0-.3.48-.87.74-.88,5.91-.03,11.84-.25,17.74.1,6.68.4,11.12,4.68,12.5,11.25.07.34.2.67.31,1.01v6.24Z" fill="#ee4540" stroke-width="0"/><path d="m126.7,27.96c0-8.46.01-16.92-.02-25.39,0-.89.19-1.2,1.14-1.19,13.96.04,27.92.04,41.88.07,5.58.01,11.03.74,16.18,3.08,7.81,3.54,13.46,9.28,16.79,17.13,3.92,9.26,4.93,18.92,2.85,28.8-2.33,11.05-8.78,19.07-18.4,24.77-8.58,5.08-17.88,6.7-27.7,6.14-6.41-.37-12.53-1.76-18.26-4.72-8.73-4.51-13.31-11.78-14.23-21.46-.18-1.91-.21-3.84-.22-5.76-.02-7.15,0-14.31,0-21.46Zm18.53,6.32s.08,0,.12,0c0,5.42-.14,10.85.04,16.26.17,5.23,2.69,9.22,7.3,11.78,4.5,2.5,9.36,2.81,14.34,2.18,4.74-.6,8.86-2.56,12.07-6.14,6.71-7.47,8.36-16.1,5.67-25.67-1.55-5.51-4.34-10.16-9.31-13.26-3.5-2.18-7.38-2.96-11.45-2.98-5.58-.02-11.16.01-16.73-.03-1.94-.02-2.04,0-2.04,1.93,0,5.31,0,10.61,0,15.92Z" fill="#f9f9f9" stroke-width="0"/><path d="m393.99,72.93c-2.22,1.57-4.3,3.24-6.55,4.59-3.51,2.11-7.51,2.66-11.51,2.94-9.44.67-17.68-2.09-24.42-8.86-4.07-4.09-6.4-9.07-7.23-14.75-.97-6.62-.68-13.13,2.27-19.28,3.7-7.71,9.6-12.92,17.79-15.51,9.66-3.05,19.2-2.94,28.62.98,9.28,3.86,14.81,10.85,16.88,20.57.6,2.83.85,5.78.89,8.69.13,8.57.07,17.15.08,25.73,0,1.6-.09,1.69-1.7,1.69-4.54,0-9.07,0-13.61,0-1.48,0-1.53-.07-1.51-1.58.01-1.76,0-3.52,0-5.2Zm-1.54-21.6c-.05-4.88-1.12-8.53-3.81-11.51-4.38-4.84-9.93-5.84-16.03-4.37-6.85,1.66-11.2,7.81-10.9,14.9.19,4.5,1.17,8.68,4.67,11.75,5.19,4.56,11.2,5.11,17.35,2.48,6.07-2.6,8.48-7.78,8.73-13.25Z" fill="#f9f9f9" stroke-width="0"/><path d="m336.81,60.31c0,6.15-.02,12.3.02,18.45,0,1.03-.26,1.4-1.37,1.38-4.77-.07-9.54-.04-14.3-.03-1.43,0-1.49-.04-1.49-1.48,0-10.15.04-20.31-.04-30.46-.01-1.78-.28-3.62-.78-5.33-1.6-5.58-5.93-7.79-11.52-7.38-6.2.45-9.6,3.88-10.3,10.08-.14,1.26-.21,2.53-.21,3.79-.02,9.73,0,19.46-.01,29.19,0,1.58-.11,1.66-1.71,1.66-4.57,0-9.15,0-13.72,0-1.57,0-1.68-.09-1.67-1.71,0-11.65,0-23.3.04-34.96.03-10.07,5.37-17.46,14.91-20.72,10.64-3.64,21.09-3.36,31.19,1.78,7.17,3.66,10.6,9.84,10.84,17.75.18,5.99.04,11.99.04,17.99h.1Z" fill="#f9f9f9" stroke-width="0"/><path d="m426.72,42.95v37.02h-8.15V1.38c.42,0,.83,0,1.23,0,12.23,0,24.46-.05,36.69.02,6.47.03,12.31,1.87,16.83,6.77,4.21,4.57,5.75,10.16,5.79,16.23.03,4.32-.68,8.51-2.74,12.37-3.35,6.26-8.87,9.48-15.67,10.21-5.29.57-10.67.38-16.01.46-2.92.04-5.85-.12-8.77-.06-3.55.07-6.48-1.07-8.67-3.92-.09-.12-.21-.21-.53-.51Zm0-34.39v1.29c0,7.12,0,14.23,0,21.35,0,5.7,3.24,9.05,8.98,9.15,4.69.08,9.39.05,14.08.03,2.34-.01,4.7,0,7.03-.22,6.6-.6,11.35-4.72,12.78-11,.88-3.86.72-7.73-.45-11.51-1.36-4.42-4.3-7.3-8.81-8.45-1.44-.37-2.95-.64-4.43-.65-9.46-.07-18.93-.05-28.39-.05-.22,0-.44.04-.79.08Z" fill="#f9f9f9" stroke-width="0"/><path d="m536.89,50.87h-49.75c.03,3.56.64,6.9,2.04,10.06,3.27,7.39,9.25,11.04,17.04,12.02,5.56.7,10.88-.03,15.99-3.11-.2,2.63-.35,5.06-.6,7.48-.03.27-.56.56-.92.7-4.69,1.83-9.59,2.23-14.53,1.79-9.98-.9-18.07-5.23-22.88-14.23-5.4-10.08-5.54-20.54-.39-30.78,5.13-10.21,16.4-16.05,28.23-15.05,13.29,1.12,22.26,9.29,24.77,22.71.5,2.7.66,5.46,1,8.41Zm-49.12-6.84h40.55c.02-.21.06-.36.04-.5-.08-.53-.16-1.07-.27-1.59-1.47-6.54-4.81-11.61-11.29-14.11-3.82-1.47-7.79-1.66-11.81-1.05-8.7,1.31-16.01,8.6-17.22,17.25Z" fill="#f9f9f9" stroke-width="0"/><path d="m600.64,21.47c-.39,2.17-.71,4.18-1.14,6.16-.05.25-.67.54-1.03.54-3.69.04-7.39.02-11.08.02-.41,0-.83,0-1.36,0v51.63h-7.8c0-.51,0-1,0-1.49,0-20.47,0-40.93,0-61.4,0-8.98,5.58-15.02,14.55-15.77,3.17-.27,6.3-.09,9.39.72.58.15,1.15.38,1.81.59-.67,2.22-1.3,4.34-1.86,6.22-2.43-.23-4.74-.49-7.05-.63-.87-.05-1.77.11-2.63.3-3.52.76-5.78,2.88-6.3,6.48-.31,2.15-.23,4.35-.33,6.62h14.84Z" fill="#f9f9f9" stroke-width="0"/><path d="m571.76,22.62c-.77,2.08-1.51,4.09-2.18,5.9-2.27-.37-4.44-.98-6.62-1.04-6.87-.19-10.73,3.11-11.76,9.9-.29,1.93-.45,3.9-.46,5.86-.04,11.77-.02,23.54-.02,35.31v1.44h-7.65c0-.46,0-.87,0-1.28,0-12.23,0-24.46,0-36.69,0-3.48.44-6.9,1.55-10.22,2.03-6.07,6.2-9.64,12.48-10.79,4.47-.81,8.88-.64,13.18.93.36.13.72.28,1.07.43.1.04.19.12.39.25Z" fill="#f9f9f9" stroke-width="0"/><path d="m34.52,62.21c0-5.52,0-11.03,0-16.55,0-1.99.19-2.02,3.66-2,9.99.05,19.98.01,29.97.03,7.28.02,14.23.82,20.5,3.09,8.91,3.23,13.9,8.06,16.67,13.79,4.82,9.94,1.87,18.92-10.15,26.68-5.75,3.71-13.14,5.76-21.62,6.38-8.9.65-17.62.33-25.68-2.27-8.25-2.66-12.77-6.8-13.08-12.25-.32-5.63-.07-11.27-.07-16.91-.07,0-.14,0-.21,0Z" fill="#fff" stroke-width="0"/><path d="m78.56,101.76c-13.29,0-26.57.06-39.86-.03-6.32-.04-12.44-1.24-18.11-4.19-8.9-4.62-14.4-12.09-17.61-21.36C.19,68.12-.39,59.77.22,51.3c.58-7.99,2.5-15.61,6.51-22.58,6.78-11.78,16.89-19.66,29.41-24.53C45.69.48,55.62-.44,65.8.18c11.64.71,22.43,3.93,32.21,10.3,12.41,8.08,20.06,19.34,22.37,34.06.6,3.82.7,7.67.7,11.53-.03,14.49-.03,28.98-.04,43.46,0,2.18-.04,2.22-2.18,2.22-13.44,0-26.87,0-40.31,0Zm-18-23.73c0,.4.06.81-.01,1.2-.29,1.6.43,2.49,1.89,3.06,2.19.85,4.3,1.91,6.5,2.73,3.78,1.42,7.74,2.07,11.77,2.02,5.34-.07,10.38-1.51,15.16-3.81,5.04-2.42,4.05-.81,4.15-6.4.04-2.3,0-2.3-2.05-1.38-11.39,5.11-22.85,5.2-34.38.49-3.05-1.25-3.03-1.29-3.03,2.1Z" fill="#ee4540" stroke-width="0"/></svg>