<?xml version="1.0" encoding="utf-8"?>
<!-- Generator: Adobe Illustrator 28.0.0, SVG Export Plug-In . SVG Version: 6.00 Build 0)  -->
<svg version="1.1" id="Calque_1" xmlns="http://www.w3.org/2000/svg" xmlns:xlink="http://www.w3.org/1999/xlink" x="0px" y="0px"
	 viewBox="0 0 512 512" style="enable-background:new 0 0 512 512;" xml:space="preserve">
<g>
	<path d="M260.9,123.6c0.1,31.5-2.7,60.3-11.6,88.3c-5.7,17.8-13.8,34.3-26.9,48c-20.1,21.1-45.2,28.5-73.6,26.7
		c-7.1-0.5-14.1-1.6-21.1-3.2c-2.4-0.6-3.6-0.2-4.3,2.4c-10.9,40.9-21.8,81.8-32.8,122.6c-0.6,2.3,0,3.8,1.4,5.4
		c10.4,11.2,22.3,20.5,34.4,29.8c3.8,3,7.8,5.8,11.7,8.7c4.2,3.1,5.5,6.4,3.9,9.9c-1.7,3.8-5.2,5.1-10.3,3.7
		c-25.7-6.9-51.3-13.7-76.9-20.6c-14.4-3.9-28.8-7.7-43.3-11.6c-4.3-1.2-6.7-3.9-6.5-7.7c0.2-3.9,2.9-6.6,7.5-7.1
		c17.6-1.9,35.1-4.1,52.3-8.2c7.1-1.7,11.5-6,13.4-12.9c10.3-38.4,20.5-76.7,30.9-115c0.8-3,0.3-4-2.7-5
		c-15.8-5.2-30.5-12.4-43.2-23.4c-19.8-17.3-28.8-39.6-29.4-65.4c-0.6-24.9,5.9-48.4,15.1-71.2c11.3-27.9,26.3-53.6,43.9-77.9
		c3.4-4.7,5.4-5.3,11-3.8c49,13.1,98,26.2,147,39.4c5.9,1.6,7.2,3.1,7.8,9C260.3,98.1,261,112,260.9,123.6L260.9,123.6z
		 M246.1,113.5c-0.5-8.2-1.1-14.2-1.2-20.2c-0.1-3.5-1.6-4.8-4.8-5.6c-44.6-11.8-89.1-23.8-133.6-35.8c-2.7-0.7-4.1,0-5.5,2.1
		c-5,7.5-10,15-14.6,22.8c-12.6,21.2-23.4,43.1-30.6,66.8c-0.3,1-1.2,2.1-0.3,3c0.9,0.8,2-0.3,2.9-0.7c26.8-10.8,53.6-11.2,80.3,0
		c9.1,3.8,18.5,6.6,28.4,7.5c28.7,2.7,53.8-7.2,77.3-22.6c1.4-0.9,1.8-2,1.7-3.6C246,121.8,246.1,116.6,246.1,113.5L246.1,113.5z"/>
	<path d="M314.4,65.4c0.4-2.4,1.9-4.1,4-5.1c12.2-6.2,24.5-12.4,36.8-18.6c4.1-2,8.1-0.7,10.1,3c2,3.8,0.7,8-3.5,10.2
		c-12.1,6.2-24.3,12.3-36.4,18.4c-2.9,1.5-5.7,1.4-8.3-0.6C314.7,70.8,313.9,68.4,314.4,65.4L314.4,65.4z"/>
	<path d="M262.2,52.1c-0.9,3.5-2.8,5.4-5.7,6c-3.2,0.7-5.8-0.5-7.7-3.1c-6.7-9.1-13.3-18.1-20-27.1c-1.4-1.9-2.8-3.8-4.2-5.7
		c-2.7-3.9-2.1-8.2,1.4-10.7c3.4-2.5,7.7-1.8,10.6,2c8,10.8,16,21.7,24,32.6c0.5,0.7,0.9,1.4,1.2,2.1
		C262.3,49.7,262.5,51.2,262.2,52.1L262.2,52.1z"/>
	<path d="M298.5,47.6c-1.4,6-2.8,12-4.3,18c-1.2,4.9-4.8,7.4-9,6.4c-4.2-1-6.4-4.8-5.3-9.7c2.8-12.1,5.7-24.3,8.7-36.4
		c1.2-4.9,4.9-7.2,9.1-6.2c4.2,1.1,6.2,4.9,5.1,9.8C301.4,35.6,300,41.6,298.5,47.6L298.5,47.6z"/>
	<path d="M248.2,162.1c-0.1,31.5,2.7,60.3,11.6,88.3c5.7,17.8,13.8,34.3,26.9,48c20.1,21.1,45.2,28.5,73.6,26.7
		c7.1-0.5,14.1-1.6,21.1-3.2c2.4-0.6,3.6-0.2,4.3,2.4c10.9,40.9,21.8,81.8,32.8,122.6c0.6,2.3,0,3.8-1.4,5.4
		c-10.4,11.2-22.3,20.5-34.4,29.8c-3.8,3-7.8,5.8-11.7,8.7c-4.2,3.1-5.5,6.4-3.9,9.9c1.7,3.8,5.2,5.1,10.3,3.7
		c25.7-6.9,51.3-13.7,76.9-20.6c14.4-3.9,28.8-7.7,43.3-11.6c4.3-1.2,6.7-3.9,6.5-7.7c-0.2-3.9-2.9-6.6-7.5-7.1
		c-17.6-1.9-35.1-4.1-52.3-8.2c-7.1-1.7-11.5-6-13.4-12.9c-10.3-38.4-20.5-76.7-30.9-115c-0.8-3-0.3-4,2.7-5
		c15.8-5.2,30.5-12.4,43.2-23.4c19.8-17.3,28.8-39.6,29.4-65.4c0.6-24.9-5.9-48.4-15.1-71.2c-11.3-27.9-26.3-53.6-43.9-77.9
		c-3.4-4.7-5.4-5.3-11-3.8c-49,13.1-98,26.2-147,39.4c-5.9,1.6-7.2,3.1-7.8,9C248.8,136.7,248.1,150.5,248.2,162.1L248.2,162.1z
		 M263,152c0.5-8.2,1.1-14.2,1.2-20.2c0.1-3.5,1.6-4.8,4.8-5.6c44.6-11.8,89.1-23.8,133.6-35.8c2.7-0.7,4.1,0,5.5,2.1
		c5,7.5,10,15,14.6,22.8c12.6,21.2,23.4,43.1,30.6,66.8c0.3,1,1.2,2.1,0.3,3c-0.9,0.8-2-0.3-2.9-0.7c-26.8-10.8-53.6-11.2-80.3,0
		c-9.1,3.8-18.5,6.6-28.4,7.5c-28.7,2.7-53.8-7.2-77.3-22.6c-1.4-0.9-1.8-2-1.7-3.6C263,160.3,263,155.1,263,152L263,152z"/>
</g>
</svg>
