<?xml version="1.0" encoding="utf-8"?>
<!-- Generator: Adobe Illustrator 28.0.0, SVG Export Plug-In . SVG Version: 6.00 Build 0)  -->
<svg version="1.1" id="Calque_1" xmlns="http://www.w3.org/2000/svg" xmlns:xlink="http://www.w3.org/1999/xlink" x="0px" y="0px"
	 viewBox="0 0 24 24" style="enable-background:new 0 0 24 24;" xml:space="preserve">
<path d="M3,10V8.5c0-0.6,0.4-1,1-1h16c0.6,0,1,0.4,1,1V10c0,0.6-0.4,1-1,1H4C3.4,11,3,10.6,3,10z"/>
<path d="M3,4.5V3c0-0.6,0.4-1,1-1h16c0.6,0,1,0.4,1,1v1.5c0,0.6-0.4,1-1,1H4C3.4,5.5,3,5.1,3,4.5z"/>
<path d="M3,21v-1.5c0-0.6,0.4-1,1-1h16c0.6,0,1,0.4,1,1V21c0,0.6-0.4,1-1,1H4C3.4,22,3,21.6,3,21z"/>
<path d="M3,15.5V14c0-0.6,0.4-1,1-1h16c0.6,0,1,0.4,1,1v1.5c0,0.6-0.4,1-1,1H4C3.4,16.5,3,16.1,3,15.5z"/>
</svg>
