<?xml version="1.0" encoding="UTF-8"?><svg id="Calque_1" xmlns="http://www.w3.org/2000/svg" viewBox="0 0 486.68 284.44"><path d="m299.22.01c2.3.47,4.62.88,6.9,1.44,7.87,1.92,14.9,5.57,21.3,10.49,5.39,4.14,10.69,8.38,16.06,12.57,11.55,9.02,24.59,13.92,39.3,13.95,3.27,0,4.64,1.3,5.38,4.44,8.48,35.57,17.09,71.13,25.65,106.69.83,3.44.5,3.91-2.85,4.72-8.12,2-16.25,3.89-24.32,6.06-2.63.71-4.45.16-6.38-1.63-29.89-27.75-59.83-55.45-89.78-83.16-4.34-4.01-8.67-8.03-13.02-12.04-3.82-3.53-4.31-3.59-9.04-1.11-15.24,7.99-30.54,15.93-46.48,22.47-8.55,3.52-17.12,7.08-26.52,7.62-6.84.39-13.59.15-20.03-2.54-8.38-3.52-13.02-9.88-14-18.88-.27-2.45-.34-4.92-.47-7.37-.29-5.32,1.9-8.99,6.89-11.18,7.65-3.37,15.18-7.01,22.79-10.46,26.41-12.02,52.85-23.97,79.23-36.05,6.4-2.93,13.09-4.67,19.94-6.02h9.47-.01Z" stroke-width="0"/><path d="m.01,134.83c3.33-9.75,6.73-19.47,9.99-29.22,9.94-29.75,19.83-59.51,29.76-89.25,2.28-6.81,4.68-8.04,11.52-5.78,14.48,4.78,28.94,9.59,43.4,14.42,5.67,1.9,7.12,4.72,5.22,10.41-13.07,39.27-26.16,78.55-39.29,117.81-1.81,5.44-4.88,6.92-10.24,5.16-14.38-4.74-28.75-9.54-43.14-14.26-2.97-.97-5.58-2.34-7.23-5.13v-4.14h.01Z" stroke-width="0"/><path d="m486.67,141.34c-1.23,3.54-3.92,5.1-7.42,5.93-14.44,3.41-28.86,6.92-43.28,10.41-7.12,1.73-9.67.15-11.4-7.04-8.98-37.25-17.98-74.52-26.97-111.77-1.47-6.11.3-9.05,6.44-10.52,14.9-3.58,29.81-7.17,44.72-10.74,5.86-1.4,8.64.3,10.07,6.25,7.54,31.24,15.03,62.49,22.62,93.72,1.69,6.95,3.02,13.99,5.23,20.8v2.96h-.01Z" stroke-width="0"/><path d="m205.2,284.44c-.35-.17-.68-.39-1.06-.49-11.96-3.01-18.09-13.38-14.96-25.27.24-.91.9-1.79.44-3.18-9.47,6.35-18.97,7.77-27.84-.77-7.43-7.15-6.96-15.68-3.21-24.69-1.63-.09-2.77.73-4,1.18-7.58,2.8-14.62,1.86-20.67-3.55-6.02-5.39-7.97-12.22-5.8-20.1.21-.75.71-1.56-.01-2.2-.74-.64-1.46.04-2.17.29-8.07,2.81-17.07.3-22.14-6.16-5.33-6.8-5.99-16.04-1.14-23.18,4.65-6.84,9.68-13.43,15.2-19.6,6.05-6.75,15.89-8.24,23.8-3.97,7.98,4.31,11.85,13.46,9.56,22.7-.18.74-.78,1.51-.12,2.2.68.74,1.44.12,2.17-.1,8.13-2.41,15.56-1.29,21.36,5.18,5.93,6.59,6.67,14.2,3.05,22.26-.19.45-.35.91-.75,1.92,9.73-4.22,18.69-4.59,26.21,3.63,7.42,8.1,6.98,16.77,1.42,25.62,1.16.63,1.68-.15,2.31-.52,8.49-4.98,18.49-3.6,25.08,3.48,6.29,6.75,6.9,17.18,1.25,25.05-3.15,4.39-6.59,8.6-9.95,12.85-3.11,3.93-7.47,5.9-12.11,7.39h-5.91.01Z" stroke-width="0"/><path d="m238.68,6.87c-11.5,5.27-22.57,10.37-33.66,15.41-15.85,7.2-31.68,14.45-47.61,21.49-3.98,1.76-6.24,4.22-6.97,8.63-1.31,7.92-2.36,15.8-.58,23.75,3.38,15.24,13.41,23.77,28.17,27.3,12.28,2.93,24.24,1.35,36.01-2.64,18.06-6.11,34.97-14.75,51.84-23.46,3.76-1.94,7.16-1.48,10.21,1.37,32.25,30,64.52,59.99,96.77,90,2.53,2.35,4.99,4.76,7.45,7.18,3.88,3.81,5.45,8.37,4.12,13.72-2.12,8.5-6.64,14.81-15.69,16.98-4.12,1-7.52.13-10.45-2.97-11.3-11.96-23.36-23.18-35-34.82-1.39-1.39-2.81-2.77-4.36-3.98-1.69-1.31-3.52-1.27-5.07.29-1.64,1.64-1.64,3.52-.34,5.35.56.79,1.31,1.46,2.01,2.17,11.08,11.21,22.5,22.08,33.96,32.91,6.1,5.75,7.23,10.78,4.15,18.65-2.7,6.9-7.11,11.9-14.64,13.76-4.55,1.13-8.24.24-11.5-3.25-12.64-13.55-26.52-25.87-39.35-39.22-1.02-1.06-2.12-2.08-3.32-2.92-1.76-1.24-3.55-1.02-5.06.54-1.44,1.48-1.44,3.18-.4,4.87.4.67.92,1.29,1.48,1.82,11.87,11.53,23.31,23.52,35.59,34.63,4.11,3.72,6.81,7.86,5.16,13.46-1.72,5.8-5.5,10.18-11.55,11.59-8.19,1.92-15.65.13-21.78-5.9-12.65-12.43-25.27-24.9-37.92-37.33-1.19-1.17-2.47-2.26-3.83-3.21-1.56-1.09-3.14-.96-4.55.43-1.47,1.44-1.81,3.09-.64,4.78.94,1.36,2.07,2.64,3.25,3.81,12.02,11.81,24,23.65,36.15,35.34,2.51,2.42,3.04,4.73,1.8,7.88-2.66,6.75-6.51,12.14-14.22,13.57-2.8.51-5.5.09-8.18-.64-4.94-1.35-9.12-4.11-13.15-7.13-1.68-1.25-2.47-2.83-1.2-4.84,8.44-13.46,2.26-38.58-20.16-44.38-3.64-.95-5.32-2.46-6.27-6.13-3.21-12.39-11.5-19.86-23.82-22.82-2.49-.61-3.88-1.64-4.54-4.23-3.2-12.6-11.24-20.48-23.85-23.57-2.52-.62-3.8-1.86-4.57-4.31-3.72-11.81-11.69-19.16-23.81-21.73-12.4-2.63-22.71,1.06-30.94,10.69-5.24,6.16-10.01,12.68-14.7,19.26-1.64,2.31-3.08,2.71-5.58,1.29-4.96-2.8-10.04-5.44-15.21-7.85-2.74-1.28-3.2-2.71-2.25-5.54,9.98-29.53,19.82-59.09,29.7-88.65,3.05-9.14,6.13-18.26,9.09-27.44.84-2.6,2.15-3.56,5-3.14,12.29,1.89,23.83-.55,34.89-6.1,18.02-9.05,36.39-17.4,54.65-25.94,11.8-5.52,23.34-5.35,35.33,1.22h-.04Z" stroke-width="0"/></svg>