<?xml version="1.0" encoding="UTF-8"?><svg id="Calque_1" xmlns="http://www.w3.org/2000/svg" viewBox="0 0 489 420.29"><path d="m188.87,420.29c.05-12.59.24-25.2.07-37.79-.11-8.34,2.33-15.02,10.23-18.85,1.32-.64,1.37-1.61,1.42-2.8,1.65-40.88,24.41-66.58,60.01-82.68,29.22-13.22,60.2-16.22,91.81-14.08,24.1,1.64,47.24,7.13,68.59,18.8,19.63,10.73,35.1,25.5,43.91,46.5,2.73,6.48,4.45,13.24,5.32,20.21.28,2.24.97,3.44,3.56,3.9,9.49,1.74,14.94,8.57,15,18.3.1,16.15.13,32.31.21,48.46h-20.62c.02-14.12-.04-28.24.12-42.36.04-3.04-.92-3.57-3.74-3.18-26.09,3.68-52.33,5.77-78.61,7.16-37.85,2-75.75,2.84-113.65,2.49-19.84-.18-39.68-.56-59.5-1.39-1.61-.07-3.75-.86-3.73,2.19.11,11.7.16,23.39.23,35.09h-20.62v.02Z" stroke-width="0"/><path d="m278.89,248.36c-8.56,2.54-16.92,5.49-25.1,8.95-.98.42-2.26.22-3.39.15-31.93-2.3-63.8-1.82-95.65,1.59-29.32,3.14-58.09,8.64-85.72,19.21-13.72,5.24-26.87,11.56-37.73,21.83-2.14,2.02-3.97,4.29-5.57,6.75-4.91,7.52-4.85,15.04.02,22.54,5.31,8.14,13.03,13.52,21.25,18.19,20.68,11.76,43.26,18.24,66.36,23.1,16.06,3.39,32.3,5.78,48.67,7.21,2.89.26,3.56,1.28,3.45,3.97-.21,5.09-.11,10.18-.05,15.27.02,1.86-.37,2.81-2.57,2.59-42.33-4.24-83.96-11.43-122.41-30.92-11.5-5.83-22.11-13.14-30.22-23.47-14.23-18.15-13.59-39.35,1.7-56.71,8.01-9.1,17.71-16,28.41-21.54,2.38-1.23,3.25-2.55,3.29-5.22.15-11.05-.93-22.16,1.11-33.14,4.71-25.38,19.93-42.91,41.75-55.33,17.64-10.05,36.89-15.07,56.96-17.07,26.67-2.65,52.84-.35,78.21,8.77.24.09.49.13.73.22,13.91,4.95,13.46,5.04,16.08,19.41,4.55,24.94,17.29,45.1,37.27,60.66.9.7,1.82,1.38,2.7,2.1.17.15.22.44.43.88h.01Z" stroke-width="0"/><path d="m336.2,243.78c-43.09-.04-77.81-34.9-77.73-78.03.1-43.01,34.99-77.63,78.21-77.59,42.58.02,77.44,35.21,77.37,78.09-.07,42.79-35.01,77.58-77.87,77.53h.01Z" stroke-width="0"/><path d="m94.54,68.95C94.49,31.15,125.49.01,163.18,0c38.29,0,69.23,30.64,69.27,68.61.04,38.5-30.54,69.22-68.92,69.25-38.09.04-68.92-30.77-68.98-68.91h0Z" stroke-width="0"/></svg>