<?xml version="1.0" encoding="UTF-8"?><svg id="Calque_1" xmlns="http://www.w3.org/2000/svg" viewBox="0 0 487.17 345.78"><path d="m411.02,116.98c-13.01,31.07-35.66,48.72-70.1,46.95-30.5-1.56-50.26-18.98-61.57-46.71-1.94.34-1.61,2.14-2.11,3.24-3.39,7.44-10.71,11.56-18.73,10.36-7.88-1.17-14.27-7.48-14.55-15.58-.4-11.97-.28-23.98,0-35.95.12-5.18,2.74-9.61,7.2-12.25,3.23-1.91,4.56-4.68,5.86-7.83C280.14,3.49,347.46-17.28,397.63,15.92c16.61,11,28.65,25.87,36,44.43,1.05,2.64,2.33,4.7,4.91,6.3,5.52,3.42,7.92,8.79,7.92,15.24,0,10.3.06,20.6-.05,30.9-.11,9.41-5.76,16.48-14.12,17.93-8.98,1.56-16.34-2.83-19.88-11.85-.27-.69-.38-1.49-1.39-1.88h-.01Zm.73-40.93c1.79-2.85,2.73-5.63,5.01-7.25,2.84-2.03,2.17-4.18.95-6.72-9.4-19.57-24.05-33.52-44.35-41.4-39.05-15.16-84.33,3.67-101.11,42.04-.57,1.3-2.11,2.9-.61,4.2,2.85,2.48,4.8,5.64,6.93,9.02,11.51-30.3,32.38-48.52,64.9-49.17,34-.68,55.92,17.64,68.28,49.28h0Z" stroke-width="0"/><path d="m345.13,266.37h-99.58c-16.38,0-25.81,9.41-25.81,25.72s-.1,32.58.06,48.86c.04,3.53-.86,4.81-4.62,4.79-12.05-.06-12.05.1-12.06-12.02,0-14.6-.05-29.19.01-43.8.06-15.1,6.09-27.37,17.9-36.75,1.86-1.47,3.19-2.91,3.64-5.49,6.5-36.7,29.77-58.72,66.73-63.53,9.32-1.21,18.65-1.91,28.04-1.74,24.12.41,48.25-1.05,72.35.91,13.75,1.12,26.95,4.43,39.07,11.35,20.1,11.47,29.84,29.82,34.16,51.69.57,2.87,1.6,4.93,4.01,6.82,11.61,9.04,17.76,21.08,17.99,35.78.28,17.51.02,35.04.15,52.55.02,3.2-1.04,4.21-4.25,4.24-12.45.09-12.45.19-12.46-12.08,0-14.14.02-28.28-.05-42.41-.07-15.16-9.67-24.82-24.81-24.86-33.51-.07-67-.02-100.5-.02h0l.02-.02Z" stroke-width="0"/><path d="m260.21,18.65c-4.73,4.15-9.49,8.27-14.16,12.47-1.86,1.67-4.06,1.18-6.14,1.18-72.24.02-144.46.02-216.7.02-1.39,0-2.76.05-4.15.01-2.06-.05-3.22.76-3.06,2.98.06.91,0,1.84,0,2.76v197.33c0,4.15,2.09,6.22,6.27,6.22h180.73c1.32,0,2.64.12,3.86.17.28,1.52-.72,1.94-1.35,2.48-12.87,11.16-18.73,25.7-19.65,42.26-.65,11.64-.43,23.35-.37,35.03.02,3.32-.84,4.57-4.38,4.56-25.52-.13-51.02-.12-76.54,0-3.3.01-4.36-1.16-4.17-4.3.19-3.22.26-6.47-.02-9.67-.33-3.81,1.34-4.62,4.82-4.57,13.98.16,27.98-.04,41.96.13,3.56.04,4.82-.96,4.79-4.66-.09-10.74.07-10.74-10.63-10.74H19.15c-12.74,0-19.07-6.2-19.09-18.87-.05-80.23-.06-160.45-.06-240.68,0-10.95,5.53-16.49,16.45-16.49,79.46-.02,158.92-.02,238.36-.02,1.32,0,2.64.18,3.96.28.48.71.95,1.4,1.43,2.11h.01Z" stroke-width="0"/><path d="m138.11,62.48c24.91.16,44.94,20.51,44.82,45.51-.12,24.76-20.7,44.83-45.73,44.59-24.75-.23-44.73-20.56-44.55-45.28.18-25.05,20.4-44.98,45.47-44.82Z" stroke-width="0"/><path d="m137.27,216.32h-65.4c-5.77,0-5.94-.12-5.2-6.03,2.02-16.02,10.99-27.28,24.54-35.3,6.13-3.62,12.75-5.97,19.57-7.93,2.64-.76,4.68-.28,6.77,1.42,5.48,4.45,11.19,8.62,16.59,13.17,2.55,2.16,4.32,2.46,7.03.13,5.35-4.6,11.03-8.81,16.6-13.15,1.57-1.22,3.07-2.5,5.37-1.92,17.55,4.31,32.25,12.63,41.09,29.16,2.63,4.91,4.08,10.19,4.66,15.78.38,3.63-.65,4.77-4.4,4.75-22.41-.16-44.83-.07-67.24-.09h.01Z" stroke-width="0"/></svg>