<?xml version="1.0" encoding="UTF-8"?><svg id="Calque_1" xmlns="http://www.w3.org/2000/svg" viewBox="0 0 480 348.84"><path d="m81.92,271.73c-.96.91-2.16.47-3.23.47-14.09.02-28.16.04-42.25,0-19.39-.04-32.57-12.69-33.19-32.07-.18-5.67.3-11.39.49-17.07.77-22.82.07-45.56-3.4-68.16-.12-.75-.22-1.51-.29-2.26-.48-5.32,2.4-9.34,7.13-9.99,4.88-.67,8.88,2.55,9.76,7.94,2.15,13.13,3.35,26.36,3.8,39.66.08,2.48.01,4.97.01,7.45.42.05.84.08,1.27.13.31-1.72.67-3.45.92-5.18,1.57-10.64,3.11-21.29,4.67-31.92.68-4.65,1.94-9.15,3.64-13.54,6.32-16.4,18.06-25.71,35.83-26.52,18.12-.83,30.5,8.28,38.08,23.95,6.94,14.36,13.1,29.08,19.34,43.76,1.45,3.41,3.32,4.69,7,4.91,9.11.53,18.2,1.48,27.29,2.41,2.94.3,4.07-.24,2.76-3.36-1.16-2.8-2.14-5.7-2.95-8.62-1.03-3.7.28-6.48,3.25-7.51,3.1-1.08,6.06.47,7.4,4.08,1.8,4.87,3.48,9.78,5.11,14.7.55,1.68,1.38,2.72,3.13,3.42,6.07,2.47,8.84,7.69,8.3,15.09-.5,6.88-3.9,11.25-10.24,13.06-2.58.73-5.22.96-7.91.96-18.14-.01-36.29-.08-54.43.02-8.96.06-15.31-3.96-19.31-11.73-6.02-11.71-11.87-23.5-17.81-35.26-1.88-3.72-2.1-3.77-4.8-.72-12.89,14.63-19.69,31.24-15.8,50.97,2.82,14.32,10.69,25.8,21.3,35.57,1.68,1.54,3.37,3.06,5.04,4.62.13.12.06.45.08.74h-.01Z" stroke-width="0"/><path d="m458.94,190.02c.77-8.8,1.48-17.6,2.35-26.4.41-4.15,1.08-8.28,1.7-12.42.89-5.94,4.87-9.34,9.96-8.55,4.93.77,7.78,5.02,6.88,10.86-3.17,20.45-4.1,41.04-3.78,61.69.13,8.48.9,16.97.66,25.42-.52,18.71-13.84,31.48-32.51,31.56-14.46.07-28.93.02-43.39.01-.86,0-1.73-.1-2.96-.16.58-2.11,2.27-2.9,3.48-3.97,9.95-8.82,17.89-19.01,21.73-31.92,6.6-22.16-.43-40.77-15.28-57.29-2.08-2.31-2.66-.38-3.38,1.08-5.38,10.9-10.9,21.73-16.06,32.74-4.56,9.75-11.56,14.67-22.7,14.39-17.12-.42-34.26-.11-51.38-.11-1.39,0-2.8,0-4.19-.1-12.11-.87-18.19-10.37-13.97-21.78,1.7-4.6,5.06-7.15,9.84-7.89,14.68-2.27,29.47-3.47,44.27-4.54,2.92-.2,4.5-1.11,5.65-3.9,5.5-13.34,11.24-26.58,16.88-39.87,5.03-11.85,12.41-21.53,24.98-26.11,19.76-7.21,41.08,2.05,49.8,21.34,4.08,9.03,5.12,18.76,7.1,28.28,1.22,5.89,2.29,11.82,3.43,17.73.29-.04.59-.07.88-.11Z" stroke-width="0"/><path d="m240.7,298.76c-19.54,0-39.07-.02-58.6,0-11.69.02-17.44,5.87-17.44,17.59,0,9.49-.13,18.99.07,28.47.07,3.24-1.02,4.24-4.13,3.99-3.02-.24-6.08-.1-9.13-.05-1.67.02-2.6-.47-2.59-2.36.12-12.27-.07-24.56.37-36.8.3-8.27,4.52-14.91,10.84-20.14,1.66-1.36,2.65-2.79,3.1-4.94,4.73-23.48,19.49-37.05,43.44-40.2,13.27-1.75,26.6-.87,39.9-.96,10.88-.07,21.8-.6,32.62,1.58,21.55,4.35,34.9,16.93,39.31,38.58.53,2.56,1.55,4.49,3.68,6.25,6.91,5.67,10.67,13.11,10.74,22.14.1,11.13-.04,22.27.08,33.4.02,2.63-.8,3.63-3.46,3.47-3.16-.17-6.35-.16-9.5,0-2.53.12-3.23-.89-3.2-3.33.12-10,.07-19.99.04-29.99-.04-10.66-6.08-16.69-16.79-16.71-19.79-.04-39.58,0-59.36,0v.02h.01Z" stroke-width="0"/><path d="m218.88,74.88c1.67-.37,2.96.59,4.3,1.64,4.87,3.84,9.89,7.53,14.64,11.51,2.24,1.88,3.82,2.08,6.17.1,4.63-3.93,9.62-7.45,14.34-11.28,2.03-1.64,4.09-2.13,6.65-1.88,21.58,2.04,33.94,13.98,36.65,36.25,1.34,11.04,1.93,22.19,2.69,33.3.18,2.73,1.07,3.89,3.9,4.41,14.5,2.63,28.64,6.55,42.46,11.72,2.77,1.04,3.56,2.1,2.14,4.87-1.68,3.26-2.98,6.7-4.34,10.1-.65,1.6-1.48,2.04-3.2,1.4-15.88-5.83-32.18-10.02-48.91-12.55-2.22-.34-2.77-1.96-3.59-3.48-8.98-16.76-22.67-27.27-41.47-30.84-24.41-4.63-49.5,7.36-61.16,29.43-1.69,3.18-3.76,4.48-7.16,5-15.95,2.48-31.56,6.37-46.72,11.94-2.52.92-3.88.8-4.85-1.94-1.09-3.09-2.45-6.12-4-9.02-1.4-2.62-1.07-3.82,1.92-4.93,14.29-5.34,28.94-9.36,43.96-11.97,3.31-.57,4.26-1.92,4.5-5.11.88-11.48,1.21-23,2.87-34.41,3.04-21.06,17.09-33.64,38.26-34.24h-.01Z" stroke-width="0"/><path d="m240.96,142.46c24.74-.04,44.65,19.87,44.68,44.67.02,24.44-19.96,44.27-44.62,44.31-24.77.04-44.76-19.93-44.69-44.62.08-24.52,20-44.32,44.63-44.35h0Z" stroke-width="0"/><path d="m125.07,75.61c.13,20.78-16.67,37.61-37.66,37.7-20.63.1-37.57-16.68-37.7-37.31-.13-20.9,16.46-37.64,37.49-37.8,20.94-.17,37.74,16.43,37.87,37.39h0Z" stroke-width="0"/><path d="m392.58,113.31c-20.8-.05-37.64-16.75-37.67-37.32-.01-21.05,16.63-37.83,37.5-37.79,21.28.05,37.99,16.74,37.87,37.8-.12,20.63-17.02,37.34-37.7,37.29h0Z" stroke-width="0"/><path d="m208.06,32.8C208.06,14.68,222.77.05,241.06,0c18.04-.05,32.96,14.87,32.95,32.94-.01,18.03-14.9,32.79-33.06,32.79s-32.87-14.74-32.88-32.91h-.01Z" stroke-width="0"/><path d="m73.24,203.39c1.63.72,1.86,2.07,2.44,3.15,4.6,8.58,9.08,17.22,13.75,25.76,5.04,9.22,13.14,15.28,21.96,20.5,11.87,7.02,24.65,11.86,37.87,15.58,3.42.96,4.36,2.06,2.29,5.29-1.9,2.97-3.32,6.25-4.88,9.43-.79,1.6-1.74,2.18-3.61,1.58-20.83-6.62-40.75-15-56.99-30.16-10.99-10.27-18.14-22.44-16.67-38.22.43-4.55,1.64-8.85,3.83-12.91h.01Z" stroke-width="0"/><path d="m406.66,203.21c4.67,9.42,5.28,18.75,2.42,28.29-3.29,10.95-10.39,19.3-19.02,26.46-15.08,12.54-32.76,20.05-51.16,26.16-2.2.73-3.25,0-4.16-1.88-1.6-3.3-3.19-6.62-5.06-9.78-1.58-2.68-.76-3.6,2-4.39,12.85-3.65,25.27-8.42,36.79-15.24,9.94-5.89,18.13-13.22,23.89-23.74,4.37-7.97,8.74-15.95,12.92-24.04.26-.51.71-.96,1.38-1.84h-.01Z" stroke-width="0"/></svg>